<svg version="1.1" xmlns="http://www.w3.org/2000/svg" xmlns:xlink="http://www.w3.org/1999/xlink" width="20" height="20" viewBox="0 0 20 20">
  <path fill="currentColor" d="M14.332 14.126l-4.080-3.626 4.080-3.626c0.206-0.183 0.225-0.499 0.042-0.706s-0.499-0.225-0.706-0.042l-4.168 3.705-4.168-3.705c-0.206-0.183-0.522-0.165-0.706 0.042s-0.165 0.522 0.042 0.706l4.080 3.626-4.080 3.626c-0.206 0.183-0.225 0.499-0.042 0.706 0.099 0.111 0.236 0.168 0.374 0.168 0.118 0 0.237-0.042 0.332-0.126l4.168-3.705 4.168 3.705c0.095 0.085 0.214 0.126 0.332 0.126 0.138 0 0.275-0.057 0.374-0.168 0.183-0.206 0.165-0.522-0.042-0.706z"></path>
</svg>
