<svg style="height: 1536px; bottom: -851;" viewBox="0 0 1282 1269" preserveAspectRatio="none" xmlns="http://www.w3.org/2000/svg">
  <path d="M1.65753 921C1.65754 1006.69 72.3844 1181.34 189.158 1226C-201.842 889.5 1611.16 1433.28 900.158 1006.89C189.158 580.5 1281.66 1030.5 1281.66 1030.5V1269H1.65753C1.65753 1269 1.65749 532.5 1.65753 921Z" fill="currentColor"/>
  <path d="M1.65751 395.882C1.65751 395.882 693.852 36.261 693.852 309.454C693.852 453.309 986.835 430.179 1141.16 309.454C1279.91 200.911 1281.66 0 1281.66 0V464H1.65751V395.882Z" fill="currentColor"/>
  <path d="M1281.66 474C1281.66 474 1240.27 621.673 589.463 579.836C-61.3425 538 1.65751 922 1.65751 922V460H1281.66V474Z" fill="currentColor"/>
</svg>
