<svg preserveAspectRatio="none" viewBox="0 0 442 495" xmlns="http://www.w3.org/2000/svg">
  <path fill="currentColor" d="M441.928 347.5C441.928 347.5 441 300.836 440.5 286C440 271.164 341.5 246.5 405 253C468.5 259.5 267.5 211 212.5 253C157.5 295 194.496 301 168.5 301C142.504 301 291.5 595.5 181.5 458.5C71.5 321.5 58.5966 465.093 0 428.5V228H441.928V347.5Z"/>
  <path fill="currentColor" d="M0.0724885 200.897C0.0724885 200.897 -5.06049 250.162 71.0609 166.566C147.182 82.9693 190.057 91.352 161.546 141.269C133.036 191.186 215.923 197.893 280.527 114.163C280.527 114.163 337.504 218.393 363.5 218.393C389.496 218.393 456.26 28.447 353 19.1389C249.74 9.8308 383.403 -19.1258 442 21.4999V228.001H0.0724882L0.0724885 200.897Z"/>
</svg>
